<svg width="396" height="118" viewBox="0 0 396 118" fill="none" xmlns="http://www.w3.org/2000/svg">
<path d="M28 87.5C23.9 85.4 19.5 84.1 14.9 83.4C10.3 82.7 5.79998 83.6 0.599976 83.6C2.59998 80.4 4.39998 77.6 6.09998 74.7C6.69998 73.8 7.39999 73.6 8.29999 73.9C16.1 76.5 23 80.5 28.3 87C28.4 87.1 28.4 87.3 28.3 87.3C28.2 87.4 28.1 87.5 28 87.5Z" fill="#FD7014"/>
<path d="M93.8 66.2C96.2 66.2 96.6 66.8 96.6 69.1Z" fill="#FEFEFE"/>
<path d="M8.70001 48.4C30.2 48.7 43.4 38.9 49.6 18.8C62.9 38.1 71 57.8 63.7 80.7C59.3 94.6 49.1 103.4 35.5 108.8C64.7 87.8 67 61.9 50 32C44.4 42 37.1 49.9 25.5 53.2C36.4 65.3 42.3 78.9 39.7 95.3C36.8 75.3 26.4 60.1 8.70001 48.4Z" fill="#FD7014"/>
<path d="M34 116.7C47.6 111.5 59.3 103.7 66.8 91C77.9 72.2 76.4 53 67.8 33.8C65.7 29.1 63.1 24.8 60.3 20.5C59.7 19.5 58.5 18.8 58.9 16.8C61.4 18.5 63.6 20.1 65.9 21.6C73.9 26.9 82.1 31.6 91.7 33.6C102.4 35.8 111.4 33.2 118.5 24.8C118.7 24.5 119.1 24.3 119.4 24.1C116.1 49.7 104.5 80.3 84.6 97.4C70.2 109.7 53.5 116.1 34.7 117.5C34 117.8 33.9 117.4 34 116.7Z" fill="#222831"/>
<path d="M84.8 12.4C84.8 5.89999 90.2 0.600006 96.7 0.600006C103.2 0.600006 108.7 5.99999 108.7 12.4C108.7 19 103.1 24.6 96.5 24.5C90 24.4 84.8 19 84.8 12.4Z" fill="#222831"/>
<path d="M1.59998 67.9C6.39998 65.2 10.3 63.1 14.1 60.8C15.4 60.1 16.2 60.1 17.4 61C26.2 67.7 31.8 76.2 33.5 87.4C25.9 76.6 15.5 70.3 1.59998 67.9Z" fill="#222831"/>
<path d="M44.8 53.8C45.8 53.9 47.4 52.8 47.9 54.5C48.5 56.2 47.2 56.5 45.8 56.7C45.1 56.8 45.3 57.4 45.6 57.8C46 58.5 46.3 59.3 47.4 59.5C54 60.6 54 60.6 51.7 67.3C51.4 68.2 52 70.5 51.1 69.9C48.7 68.3 46.4 70.1 44.2 69.2C43.5 68.9 43.8 68.1 43.9 67.5C44 66.5 44.7 66.5 45.5 66.4C46.3 66.3 47.8 67 47.3 65.1C47 63.9 46.3 63.2 44.9 63.4C42.5 63.8 40.5 63.1 39.5 60.6C38.4 57.8 41.2 56.2 41.9 54C42.1 52.7 43.7 54.5 44.8 53.8Z" fill="#222831"/>
<path d="M34 116.7C34.2 116.9 34.5 117.2 34.7 117.4C34 118 33.1 118.1 32.2 117.9C32.6 117.1 33.2 116.8 34 116.7Z" fill="#5A5A5A"/>
<path d="M136.4 75.9C137.6 75.7 139.2 75.5 141.2 75.5C143.7 75.5 145.5 76.1 146.6 77.1C147.7 78 148.3 79.4 148.3 81.1C148.3 82.8 147.8 84.2 146.8 85.2C145.5 86.6 143.3 87.3 140.9 87.3C140.2 87.3 139.5 87.3 138.9 87.1V94.8H136.4V75.9ZM138.9 85.1C139.4 85.2 140.1 85.3 141 85.3C144 85.3 145.8 83.8 145.8 81.2C145.8 78.7 144 77.4 141.3 77.4C140.2 77.4 139.4 77.5 139 77.6V85.1H138.9Z" fill="#393E46"/>
<path d="M152.3 88.8L150.3 94.8H147.7L154.2 75.6H157.2L163.8 94.8H161.1L159 88.8H152.3ZM158.6 86.9L156.7 81.4C156.3 80.1 156 79 155.7 77.9H155.6C155.3 79 155 80.2 154.6 81.4L152.7 87H158.6V86.9Z" fill="#393E46"/>
<path d="M168.7 94.9V86.7L162.6 75.6H165.4L168.1 80.9C168.8 82.4 169.4 83.5 170 84.9H170.1C170.6 83.6 171.3 82.4 172 80.9L174.8 75.6H177.6L171.2 86.6V94.8H168.7V94.9Z" fill="#393E46"/>
<path d="M195.8 86.4C195.7 83.7 195.5 80.5 195.5 78.1H195.4C194.7 80.4 193.9 82.8 193 85.4L189.6 94.7H187.7L184.6 85.5C183.7 82.8 182.9 80.3 182.4 78H182.3C182.2 80.4 182.1 83.6 181.9 86.5L181.4 94.7H179L180.3 75.5H183.5L186.8 84.8C187.6 87.2 188.3 89.3 188.7 91.3H188.8C189.3 89.4 190 87.2 190.8 84.8L194.2 75.5H197.4L198.6 94.7H196.2L195.8 86.4Z" fill="#393E46"/>
<path d="M212.5 85.9H205V92.8H213.3V94.9H202.5V75.7H212.9V77.8H205V83.9H212.5V85.9Z" fill="#393E46"/>
<path d="M216.6 94.9V75.7H219.3L225.5 85.4C226.9 87.7 228 89.7 229 91.6H229.1C228.9 89 228.8 86.7 228.8 83.7V75.7H231.1V94.9H228.6L222.5 85.1C221.2 83 219.9 80.8 218.9 78.7H218.8C218.9 81.1 219 83.4 219 86.6V94.8H216.6V94.9Z" fill="#393E46"/>
<path d="M239 77.8H233.2V75.7H247.4V77.8H241.5V94.9H239V77.8Z" fill="#393E46"/>
<path d="M249 91.9C250.1 92.6 251.7 93.2 253.5 93.2C256 93.2 257.5 91.9 257.5 89.9C257.5 88.1 256.5 87.1 253.9 86.1C250.8 85 248.8 83.4 248.8 80.6C248.8 77.6 251.3 75.4 255 75.4C257 75.4 258.4 75.9 259.3 76.3L258.6 78.3C258 78 256.7 77.4 254.9 77.4C252.3 77.4 251.3 79 251.3 80.3C251.3 82.1 252.5 83 255.1 84C258.4 85.3 260 86.8 260 89.7C260 92.7 257.8 95.2 253.3 95.2C251.4 95.2 249.4 94.7 248.4 94L249 91.9Z" fill="#393E46"/>
<path d="M189.4 16.3L183.5 67.7H166.8C165.3 59.8 163.9 50.8 162.8 40.8C162.3 45.1 161 54.1 159.1 67.7H142.5L136.5 16.3H149.5L150.9 34.2L152.3 51.5C152.8 42.5 154 30.8 156 16.2H169.9C170.1 17.7 170.6 23.4 171.4 33.1L172.9 52.7C173.7 40.3 174.9 28.1 176.6 16.2H189.4V16.3Z" fill="#FD7014"/>
<path d="M206.3 41.9H194.3V39C194.3 35.7 194.7 33.2 195.4 31.5C196.2 29.7 197.7 28.2 199.9 26.8C202.2 25.4 205.1 24.8 208.7 24.8C213 24.8 216.3 25.6 218.5 27.1C220.7 28.6 222 30.5 222.5 32.7C223 34.9 223.2 39.5 223.2 46.5V67.6H210.7V63.8C209.9 65.3 208.9 66.4 207.7 67.2C206.5 68 205 68.3 203.3 68.3C201.1 68.3 199 67.7 197.1 66.4C195.2 65.1 194.3 62.4 194.3 58.1V54.6C194.3 51.4 194.8 49.3 195.8 48.2C196.8 47.1 199.3 45.7 203.2 44.2C207.4 42.5 209.7 41.4 210 40.9C210.3 40.3 210.4 39.2 210.4 37.4C210.4 35.2 210.2 33.8 209.9 33.1C209.6 32.4 209 32.1 208.3 32.1C207.4 32.1 206.9 32.4 206.7 32.9C206.5 33.5 206.4 34.9 206.4 37.3V41.9H206.3ZM210.4 47.6C208.3 49.1 207.2 50.4 206.8 51.4C206.4 52.4 206.3 53.9 206.3 55.8C206.3 58 206.4 59.4 206.7 60C207 60.6 207.6 61 208.4 61C209.2 61 209.7 60.8 210 60.3C210.2 59.8 210.4 58.5 210.4 56.4V47.6Z" fill="#FD7014"/>
<path d="M244.1 16.3V67.7H230.9V16.3H244.1Z" fill="#FD7014"/>
<path d="M254 16.3H267.3C271.5 16.3 274.7 16.6 276.9 17.3C279.1 18 280.8 19.3 282.2 21.3C283.5 23.3 284.2 26.5 284.2 31C284.2 34 283.7 36.1 282.8 37.3C281.9 38.5 280 39.4 277.2 40C280.3 40.7 282.4 41.9 283.5 43.5C284.6 45.1 285.2 47.6 285.2 50.9V55.7C285.2 59.2 284.8 61.7 284 63.4C283.2 65.1 281.9 66.2 280.2 66.8C278.5 67.4 274.9 67.7 269.5 67.7H254V16.3ZM267.4 25.1V36.5C268 36.5 268.4 36.5 268.7 36.5C270 36.5 270.8 36.2 271.2 35.5C271.6 34.9 271.7 33 271.7 30C271.7 28.4 271.6 27.3 271.3 26.6C271 26 270.6 25.5 270.1 25.4C269.7 25.2 268.8 25.1 267.4 25.1ZM267.4 44.5V58.9C269.3 58.8 270.5 58.5 271 58C271.5 57.5 271.8 56.2 271.8 54.1V49.3C271.8 47.1 271.6 45.8 271.1 45.3C270.6 44.8 269.4 44.6 267.4 44.5Z" fill="#FD7014"/>
<path d="M304.3 41.9H292.3V39C292.3 35.7 292.7 33.2 293.4 31.5C294.2 29.7 295.7 28.2 297.9 26.8C300.2 25.4 303.1 24.8 306.7 24.8C311 24.8 314.3 25.6 316.5 27.1C318.7 28.6 320 30.5 320.5 32.7C321 34.9 321.2 39.5 321.2 46.5V67.6H308.7V63.8C307.9 65.3 306.9 66.4 305.7 67.2C304.5 68 303 68.3 301.3 68.3C299.1 68.3 297 67.7 295.1 66.4C293.2 65.1 292.3 62.4 292.3 58.1V54.6C292.3 51.4 292.8 49.3 293.8 48.2C294.8 47.1 297.3 45.7 301.2 44.2C305.4 42.5 307.7 41.4 308 40.9C308.3 40.3 308.4 39.2 308.4 37.4C308.4 35.2 308.2 33.8 307.9 33.1C307.6 32.4 307 32.1 306.3 32.1C305.4 32.1 304.9 32.4 304.7 32.9C304.5 33.5 304.4 34.9 304.4 37.3V41.9H304.3ZM308.3 47.6C306.2 49.1 305.1 50.4 304.7 51.4C304.3 52.4 304.2 53.9 304.2 55.8C304.2 58 304.3 59.4 304.6 60C304.9 60.6 305.5 61 306.3 61C307.1 61 307.6 60.8 307.9 60.3C308.1 59.8 308.3 58.5 308.3 56.4V47.6Z" fill="#FD7014"/>
<path d="M341.8 25.6L341.6 29.5C342.5 28 343.7 26.8 345 26C346.3 25.2 347.9 24.8 349.6 24.8C351.8 24.8 353.6 25.3 355 26.4C356.4 27.4 357.3 28.7 357.7 30.3C358.1 31.9 358.3 34.5 358.3 38.2V67.7H345.5V38.5C345.5 35.6 345.4 33.8 345.2 33.2C345 32.6 344.5 32.2 343.6 32.2C342.7 32.2 342.1 32.6 341.9 33.3C341.7 34 341.6 36 341.6 39.2V67.7H328.8V25.6H341.8V25.6Z" fill="#FD7014"/>
<path d="M393.7 25.6L388.5 42.4L395.3 67.7H383L379 49.3V67.7H366V16.3H378.8V37.9L382.8 25.6H393.7V25.6Z" fill="#FD7014"/>
</svg>
