<svg width="165" height="182" viewBox="0 0 165 182" fill="none" xmlns="http://www.w3.org/2000/svg">
<path d="M99.1 66.6C101.5 66.6 101.9 67.2 101.9 69.5Z" fill="#FEFEFE"/>
<path d="M39.3001 117.1C52.9001 111.9 64.6 104.1 72.1 91.4C83.2 72.6 81.7 53.4 73.1 34.2C71 29.5 68.4 25.2 65.6 20.9C65 19.9 63.8 19.2 64.2 17.2C66.7 18.9 68.9 20.5 71.2 22C79.2 27.3 87.4 32 97 34C107.7 36.2 116.7 33.6 123.8 25.2C124 24.9 124.4 24.7 124.7 24.5C121.4 50.1 109.8 80.7 89.9001 97.8C75.5001 110.1 58.8 116.5 40 117.9C39.2 118.1 39.1001 117.7 39.3001 117.1Z" fill="#FD7014"/>
<path d="M14 48.8C35.5 49.1 48.7 39.3 54.9 19.2C68.2 38.5 76.3 58.2 69 81.1C64.6 95 54.4 103.8 40.8 109.2C70 88.2 72.3 62.3 55.3 32.4C49.7 42.4 42.4 50.3 30.8 53.6C41.7 65.7 47.6 79.3 45 95.7C42 75.6 31.6 60.4 14 48.8Z" fill="#EEEEEE"/>
<path d="M90 12.7C90 6.2 95.4 0.899994 101.9 0.899994C108.4 0.899994 113.9 6.29999 113.9 12.7C113.9 19.3 108.3 24.9 101.7 24.8C95.2 24.7 90 19.3 90 12.7Z" fill="#FD7014"/>
<path d="M6.80005 68.3C11.6 65.6 15.5 63.5 19.3 61.2C20.6 60.5 21.4 60.5 22.6 61.4C31.4 68.1 37 76.6 38.7 87.8C31.2 76.9 20.8 70.6 6.80005 68.3Z" fill="#FD7014"/>
<path d="M33.2 87.9C29.1 85.8 24.7 84.5 20.1 83.8C15.5 83.1 11 84 5.80005 84C7.80005 80.8 9.60005 78 11.3 75.1C11.9 74.2 12.6 74 13.5 74.3C21.3 76.9 28.2 80.9 33.5 87.4C33.6 87.5 33.6 87.7 33.5 87.7C33.5 87.8 33.3 87.8 33.2 87.9Z" fill="#EEEEEE"/>
<path d="M50.1 54.2C51.1 54.3 52.7 53.2 53.2 54.9C53.8 56.6 52.5 56.9 51.1 57.1C50.4 57.2 50.6 57.8 50.9 58.2C51.3 58.9 51.6 59.7 52.7 59.9C59.3 61 59.3 61 57 67.7C56.7 68.6 57.3 70.9 56.4 70.3C54 68.7 51.7 70.5 49.5 69.6C48.8 69.3 49.1 68.5 49.2 67.9C49.3 66.9 50.0001 66.9 50.8001 66.8C51.6001 66.7 53.1 67.4 52.6 65.5C52.3 64.3 51.6 63.6 50.2 63.8C47.8 64.2 45.8001 63.5 44.8001 61C43.7001 58.2 46.5 56.6 47.2 54.4C47.4 53 49 54.8 50.1 54.2Z" fill="#FD7014"/>
<path d="M39.3 117.1C39.5 117.3 39.8 117.6 40 117.8C39.3 118.4 38.4 118.5 37.5 118.3C37.8 117.4 38.5 117.2 39.3 117.1Z" fill="#5A5A5A"/>
<path d="M35.5 166.7C36.4 166.5 37.6 166.4 39.1 166.4C40.9 166.4 42.3 166.8 43.2 167.6C44 168.3 44.5 169.3 44.5 170.6C44.5 171.9 44.1 172.9 43.4 173.7C42.4 174.8 40.8 175.3 39 175.3C38.4 175.3 37.9 175.3 37.5 175.2V181H35.6V166.7H35.5ZM37.4 173.6C37.8 173.7 38.3 173.8 38.9 173.8C41.2 173.8 42.5 172.7 42.5 170.7C42.5 168.8 41.1 167.9 39.1 167.9C38.3 167.9 37.7 168 37.3 168.1V173.6H37.4Z" fill="#FD7014"/>
<path d="M47.5 176.4L46 180.9H44.1L49 166.4H51.3L56.2 180.9H54.2L52.7 176.4H47.5ZM52.2 174.9L50.8 170.7C50.5 169.8 50.3 168.9 50 168.1C49.8 169 49.5 169.8 49.3 170.7L47.9 174.9H52.2Z" fill="#FD7014"/>
<path d="M59.8 181V174.9L55.2 166.6H57.3L59.3 170.6C59.9 171.7 60.3 172.6 60.7 173.6C61.1 172.7 61.6 171.7 62.2 170.6L64.3 166.6H66.4L61.6 174.9V181.1H59.8V181Z" fill="#FD7014"/>
<path d="M80.2 174.6C80.1 172.6 80 170.2 80 168.4H79.9C79.4 170.1 78.8 171.9 78.1 173.9L75.5 180.9H74.1L71.8 174C71.1 172 70.5 170.1 70.1 168.4C70.1 170.2 69.9 172.6 69.8 174.8L69.4 181H67.6L68.6 166.5H71L73.5 173.5C74.1 175.3 74.6 176.9 75 178.4H75.1C75.5 176.9 76 175.4 76.6 173.5L79.2 166.5H81.6L82.5 181H80.7L80.2 174.6Z" fill="#FD7014"/>
<path d="M92.7 174.2H87.1V179.4H93.4V181H85.3V166.5H93.1V168.1H87.2V172.7H92.8V174.2H92.7Z" fill="#FD7014"/>
<path d="M95.8 181V166.5H97.8L102.4 173.8C103.5 175.5 104.3 177 105 178.5C104.8 176.6 104.8 174.8 104.8 172.6V166.6H106.6V181H104.7L100.1 173.7C99.1 172.1 98.1 170.4 97.4 168.9H97.3C97.4 170.7 97.5 172.5 97.5 174.9V181.1H95.8V181Z" fill="#FD7014"/>
<path d="M112.6 168.1H108.2V166.5H118.9V168.1H114.5V181H112.6V168.1V168.1Z" fill="#FD7014"/>
<path d="M120.2 178.7C121 179.2 122.3 179.6 123.5 179.6C125.4 179.6 126.5 178.6 126.5 177.1C126.5 175.7 125.7 175 123.8 174.2C121.4 173.4 120 172.1 120 170.1C120 167.8 121.9 166.2 124.7 166.2C126.2 166.2 127.3 166.5 127.9 166.9L127.4 168.4C126.9 168.1 126 167.7 124.7 167.7C122.7 167.7 122 168.9 122 169.9C122 171.3 122.9 171.9 124.9 172.7C127.3 173.6 128.6 174.8 128.6 176.9C128.6 179.1 126.9 181.1 123.5 181.1C122.1 181.1 120.6 180.7 119.8 180.2L120.2 178.7Z" fill="#FD7014"/>
<path d="M34.2 125.8L30.4 158.4H19.8C18.8 153.4 18 147.7 17.2 141.3C16.9 144 16.1 149.7 14.8 158.4H4.30005L0.5 125.8H8.69995L9.59998 137.2L10.5 148.2C10.8 142.5 11.6 135.1 12.8 125.9H21.6C21.7 126.9 22 130.4 22.5 136.6L23.4 149C23.9 141.1 24.7 133.4 25.8 125.9H34.2V125.8Z" fill="#EEEEEE"/>
<path d="M44.9 142H37.3V140.2C37.3 138.1 37.5 136.5 38 135.4C38.5 134.3 39.4 133.3 40.9 132.4C42.3 131.5 44.2 131.1 46.5 131.1C49.2 131.1 51.3 131.6 52.7 132.6C54.1 133.6 54.9 134.8 55.2 136.2C55.5 137.6 55.6 140.5 55.6 144.9V158.3H47.7V156C47.2 157 46.6 157.7 45.8 158.1C45 158.6 44.1 158.8 43 158.8C41.6 158.8 40.3 158.4 39.1 157.6C37.9 156.8 37.3 155.1 37.3 152.4V150.2C37.3 148.2 37.6 146.8 38.2 146.1C38.8 145.4 40.4 144.5 42.9 143.6C45.6 142.6 47 141.9 47.2 141.5C47.4 141.1 47.5 140.4 47.5 139.3C47.5 137.9 47.4 137 47.2 136.6C47 136.2 46.6 136 46.2 136C45.6 136 45.3 136.2 45.2 136.5C45.1 136.9 45 137.8 45 139.3V142H44.9ZM47.5 145.7C46.2 146.7 45.4 147.4 45.2 148.1C45 148.8 44.9 149.7 44.9 150.9C44.9 152.3 45 153.2 45.2 153.6C45.4 154 45.7 154.2 46.3 154.2C46.8 154.2 47.1 154 47.3 153.7C47.5 153.4 47.5 152.6 47.5 151.2V145.7Z" fill="#EEEEEE"/>
<path d="M68.8 125.8V158.4H60.4V125.8H68.8Z" fill="#EEEEEE"/>
<path d="M75.1 125.8H83.5C86.2 125.8 88.2 126 89.6 126.4C91 126.8 92.1 127.7 92.9 128.9C93.7 130.2 94.2 132.2 94.2 135C94.2 136.9 93.9 138.2 93.3 139C92.7 139.8 91.5 140.3 89.8 140.7C91.8 141.1 93.1 141.9 93.8 142.9C94.5 143.9 94.8 145.5 94.8 147.6V150.6C94.8 152.8 94.5 154.4 94 155.5C93.5 156.6 92.7 157.3 91.6 157.7C90.5 158.1 88.2 158.3 84.8 158.3H75V125.8H75.1ZM83.6 131.4V138.6C84 138.6 84.2 138.6 84.4 138.6C85.2 138.6 85.8 138.4 86 138C86.2 137.6 86.3 136.4 86.3 134.5C86.3 133.5 86.2 132.8 86 132.4C85.8 132 85.6 131.7 85.3 131.6C85.1 131.4 84.5 131.4 83.6 131.4ZM83.6 143.7V152.8C84.8 152.8 85.6 152.6 85.9 152.2C86.2 151.9 86.4 151 86.4 149.7V146.7C86.4 145.3 86.3 144.5 86 144.2C85.6 143.9 84.9 143.7 83.6 143.7Z" fill="#EEEEEE"/>
<path d="M107 142H99.4V140.2C99.4 138.1 99.6 136.5 100.1 135.4C100.6 134.3 101.5 133.3 103 132.4C104.4 131.5 106.3 131.1 108.6 131.1C111.3 131.1 113.4 131.6 114.8 132.6C116.2 133.6 117 134.8 117.3 136.2C117.6 137.6 117.7 140.5 117.7 144.9V158.3H109.8V156C109.3 157 108.7 157.7 107.9 158.1C107.1 158.6 106.2 158.8 105.1 158.8C103.7 158.8 102.4 158.4 101.2 157.6C100 156.8 99.4 155.1 99.4 152.4V150.2C99.4 148.2 99.7 146.8 100.3 146.1C100.9 145.4 102.5 144.5 105 143.6C107.7 142.6 109.1 141.9 109.3 141.5C109.5 141.1 109.6 140.4 109.6 139.3C109.6 137.9 109.5 137 109.3 136.6C109.1 136.2 108.7 136 108.3 136C107.7 136 107.4 136.2 107.3 136.5C107.2 136.9 107.1 137.8 107.1 139.3V142H107ZM109.5 145.7C108.2 146.7 107.4 147.4 107.2 148.1C107 148.8 106.9 149.7 106.9 150.9C106.9 152.3 107 153.2 107.2 153.6C107.4 154 107.7 154.2 108.3 154.2C108.8 154.2 109.1 154 109.3 153.7C109.5 153.4 109.5 152.6 109.5 151.2V145.7Z" fill="#EEEEEE"/>
<path d="M130.8 131.7L130.7 134.2C131.3 133.2 132 132.5 132.9 132C133.8 131.5 134.7 131.3 135.8 131.3C137.2 131.3 138.3 131.6 139.2 132.3C140.1 133 140.7 133.8 140.9 134.8C141.2 135.8 141.3 137.5 141.3 139.8V158.5H133.2V140C133.2 138.2 133.1 137 133 136.6C132.9 136.2 132.5 136 132 136C131.4 136 131.1 136.2 130.9 136.7C130.8 137.2 130.7 138.4 130.7 140.4V158.4H122.6V131.7H130.8Z" fill="#EEEEEE"/>
<path d="M163.6 131.7L160.3 142.3L164.6 158.4H156.8L154.3 146.8V158.4H146.2V125.8H154.3V139.5L156.8 131.7H163.6V131.7Z" fill="#EEEEEE"/>
</svg>
