<svg width="395" height="119" viewBox="0 0 395 119" fill="none" xmlns="http://www.w3.org/2000/svg">
<path d="M27.4 87.6C23.3 85.5 18.9 84.2 14.3 83.5C9.70005 82.8 5.2 83.7 0 83.7C2 80.5 3.8 77.7 5.5 74.8C6.1 73.9 6.79995 73.7 7.69995 74C15.5 76.6 22.4 80.6 27.7 87.1C27.8 87.2 27.8 87.4 27.7 87.4C27.7 87.5 27.5 87.5 27.4 87.6Z" fill="#EEEEEE"/>
<path d="M93.3 66.3C95.7 66.3 96.1 66.9 96.1 69.2Z" fill="#FD7014"/>
<path d="M8.19995 48.5C29.7 48.8 42.9 39 49.1 18.9C62.4 38.2 70.5 57.9 63.2 80.8C58.8 94.7 48.6 103.5 35 108.9C64.2 87.9 66.5 62 49.5 32.1C43.9 42.1 36.6 50 25 53.3C35.9 65.4 41.8 79 39.2 95.4C36.2 75.4 25.8 60.1 8.19995 48.5Z" fill="#EEEEEE"/>
<path d="M33.5 116.8C47.1 111.6 58.8001 103.8 66.3001 91.1C77.4001 72.3 75.9001 53.1 67.3001 33.9C65.2001 29.2 62.6001 24.9 59.8001 20.6C59.2001 19.6 58.0001 18.9 58.4001 16.9C60.9001 18.6 63.1001 20.2 65.4001 21.7C73.4001 27 81.6 31.7 91.2 33.7C101.9 35.9 110.9 33.3 118 24.9C118.2 24.6 118.6 24.4 118.9 24.2C115.6 49.8 104 80.4 84.1 97.5C69.7 109.8 53 116.2 34.2 117.6C33.4 117.8 33.3 117.4 33.5 116.8Z" fill="#FD7014"/>
<path d="M84.2 12.5C84.2 6 89.6 0.700012 96.1 0.700012C102.6 0.700012 108.1 6.1 108.1 12.5C108.1 19.1 102.5 24.7 95.9 24.6C89.4 24.4 84.2 19 84.2 12.5Z" fill="#FD7014"/>
<path d="M1 68C5.8 65.3 9.7 63.2 13.5 60.9C14.8 60.2 15.6 60.2 16.8 61.1C25.6 67.8 31.2 76.3 32.9 87.5C25.4 76.6 14.9 70.3 1 68Z" fill="#FD7014"/>
<path d="M44.2 53.9C45.2 54 46.8001 52.9 47.3001 54.6C47.9001 56.3 46.6 56.6 45.2 56.8C44.5 56.9 44.7 57.5 45 57.9C45.4 58.6 45.7001 59.4 46.8001 59.6C53.4001 60.7 53.4 60.7 51.1 67.4C50.8 68.3 51.4 70.6 50.5 70C48.1 68.4 45.8 70.2 43.6 69.3C42.9 69 43.2001 68.2 43.3001 67.6C43.4001 66.6 44.1 66.6 44.9 66.5C45.7 66.4 47.2 67.1 46.7 65.2C46.4 64 45.7001 63.3 44.3001 63.5C41.9001 63.9 39.9 63.2 38.9 60.7C37.8 57.9 40.6001 56.3 41.3001 54.1C41.6001 52.7 43.2 54.5 44.2 53.9Z" fill="#FD7014"/>
<path d="M33.5 116.8C33.7 117 34 117.3 34.2 117.5C33.5 118.1 32.6 118.2 31.7 118C32 117.1 32.7 116.9 33.5 116.8Z" fill="#FD7014"/>
<path d="M135.8 75.9C137 75.7 138.6 75.5 140.6 75.5C143.1 75.5 144.9 76.1 146 77.1C147.1 78 147.7 79.4 147.7 81.1C147.7 82.8 147.2 84.2 146.2 85.2C144.9 86.6 142.7 87.3 140.3 87.3C139.6 87.3 138.9 87.3 138.3 87.1V94.8H135.8V75.9ZM138.3 85.2C138.8 85.3 139.5 85.4 140.4 85.4C143.4 85.4 145.2 83.9 145.2 81.3C145.2 78.8 143.4 77.5 140.7 77.5C139.6 77.5 138.8 77.6 138.4 77.7V85.2H138.3Z" fill="#FD7014"/>
<path d="M151.7 88.9L149.7 94.9H147.1L153.6 75.7H156.6L163.2 94.9H160.5L158.4 88.9H151.7ZM158 86.9L156.1 81.4C155.7 80.1 155.4 79 155.1 77.9H155C154.7 79 154.4 80.2 154 81.4L152.1 87H158V86.9Z" fill="#FD7014"/>
<path d="M168.1 94.9V86.7L162 75.6H164.8L167.5 80.9C168.2 82.4 168.8 83.5 169.4 84.9H169.5C170 83.6 170.7 82.4 171.4 80.9L174.2 75.6H177L170.6 86.6V94.8H168.1V94.9Z" fill="#FD7014"/>
<path d="M195.2 86.5C195.1 83.8 194.9 80.6 194.9 78.2H194.8C194.1 80.5 193.3 82.9 192.4 85.5L189 94.8H187.1L184 85.6C183.1 82.9 182.3 80.4 181.8 78.1H181.7C181.6 80.5 181.5 83.7 181.3 86.6L180.8 94.8H178.4L179.7 75.6H182.9L186.2 84.9C187 87.3 187.7 89.4 188.1 91.4H188.2C188.7 89.5 189.4 87.3 190.2 84.9L193.6 75.6H196.8L198 94.8H195.6L195.2 86.5Z" fill="#FD7014"/>
<path d="M211.9 85.9H204.4V92.8H212.7V94.9H201.9V75.7H212.3V77.8H204.4V83.9H211.9V85.9Z" fill="#FD7014"/>
<path d="M216 94.9V75.7H218.7L224.9 85.4C226.3 87.7 227.4 89.7 228.4 91.6H228.5C228.3 89 228.2 86.7 228.2 83.7V75.7H230.5V94.9H228L221.9 85.1C220.6 83 219.3 80.8 218.3 78.7H218.2C218.3 81.1 218.4 83.4 218.4 86.6V94.8H216V94.9Z" fill="#FD7014"/>
<path d="M238.4 77.8H232.6V75.7H246.8V77.8H240.9V94.9H238.4V77.8Z" fill="#FD7014"/>
<path d="M248.4 91.9C249.5 92.6 251.1 93.2 252.9 93.2C255.4 93.2 256.9 91.9 256.9 89.9C256.9 88.1 255.9 87.1 253.3 86.1C250.2 85 248.2 83.4 248.2 80.6C248.2 77.6 250.7 75.4 254.4 75.4C256.4 75.4 257.8 75.9 258.7 76.3L258 78.3C257.4 78 256.1 77.4 254.3 77.4C251.7 77.4 250.7 79 250.7 80.3C250.7 82.1 251.9 83 254.5 84C257.8 85.3 259.4 86.8 259.4 89.7C259.4 92.7 257.2 95.2 252.7 95.2C250.8 95.2 248.8 94.7 247.8 94L248.4 91.9Z" fill="#FD7014"/>
<path d="M188.8 16.3L182.9 67.7H166.2C164.7 59.8 163.3 50.8 162.2 40.8C161.7 45.1 160.4 54.1 158.5 67.7H141.9L135.9 16.3H148.9L150.3 34.2L151.7 51.5C152.2 42.5 153.4 30.8 155.4 16.2H169.3C169.5 17.7 170 23.4 170.8 33.1L172.3 52.7C173.1 40.3 174.3 28.1 176 16.2H188.8V16.3Z" fill="#EEEEEE"/>
<path d="M205.8 41.9H193.8V39.1C193.8 35.8 194.2 33.3 194.9 31.6C195.7 29.8 197.2 28.3 199.4 26.9C201.7 25.5 204.6 24.9 208.2 24.9C212.5 24.9 215.8 25.7 218 27.2C220.2 28.7 221.5 30.6 222 32.8C222.5 35 222.7 39.6 222.7 46.6V67.7H210.2V64C209.4 65.5 208.4 66.6 207.2 67.4C206 68.2 204.5 68.5 202.8 68.5C200.6 68.5 198.5 67.9 196.6 66.6C194.7 65.3 193.8 62.6 193.8 58.3V54.8C193.8 51.6 194.3 49.5 195.3 48.4C196.3 47.3 198.8 45.9 202.7 44.4C206.9 42.7 209.2 41.6 209.5 41.1C209.8 40.5 209.9 39.4 209.9 37.6C209.9 35.4 209.7 34 209.4 33.3C209.1 32.6 208.5 32.3 207.8 32.3C206.9 32.3 206.4 32.6 206.2 33.1C206 33.7 205.9 35.1 205.9 37.5V41.9H205.8ZM209.8 47.7C207.7 49.2 206.6 50.5 206.2 51.5C205.8 52.5 205.7 54 205.7 55.9C205.7 58.1 205.8 59.5 206.1 60.1C206.4 60.7 207 61.1 207.8 61.1C208.6 61.1 209.1 60.9 209.4 60.4C209.6 59.9 209.8 58.6 209.8 56.5V47.7V47.7Z" fill="#EEEEEE"/>
<path d="M243.5 16.3V67.7H230.3V16.3H243.5Z" fill="#EEEEEE"/>
<path d="M253.5 16.3H266.8C271 16.3 274.2 16.6 276.4 17.3C278.6 18 280.3 19.3 281.7 21.3C283 23.3 283.7 26.5 283.7 31C283.7 34 283.2 36.1 282.3 37.3C281.4 38.5 279.5 39.4 276.7 40C279.8 40.7 281.9 41.9 283 43.5C284.1 45.1 284.7 47.6 284.7 50.9V55.7C284.7 59.2 284.3 61.7 283.5 63.4C282.7 65.1 281.4 66.2 279.7 66.8C278 67.4 274.4 67.7 269 67.7H253.5V16.3V16.3ZM266.8 25.1V36.5C267.4 36.5 267.8 36.5 268.1 36.5C269.4 36.5 270.2 36.2 270.6 35.5C271 34.9 271.1 33 271.1 30C271.1 28.4 271 27.3 270.7 26.6C270.4 26 270 25.5 269.5 25.4C269.1 25.2 268.2 25.1 266.8 25.1ZM266.8 44.5V58.9C268.7 58.8 269.9 58.5 270.4 58C270.9 57.5 271.2 56.2 271.2 54.1V49.3C271.2 47.1 271 45.8 270.5 45.3C270 44.9 268.8 44.6 266.8 44.5Z" fill="#EEEEEE"/>
<path d="M303.7 41.9H291.7V39.1C291.7 35.8 292.1 33.3 292.8 31.6C293.6 29.8 295.1 28.3 297.3 26.9C299.6 25.5 302.5 24.9 306.1 24.9C310.4 24.9 313.7 25.7 315.9 27.2C318.1 28.7 319.4 30.6 319.9 32.8C320.4 35 320.6 39.6 320.6 46.6V67.7H308.1V64C307.3 65.5 306.3 66.6 305.1 67.4C303.9 68.2 302.4 68.5 300.7 68.5C298.5 68.5 296.4 67.9 294.5 66.6C292.6 65.3 291.7 62.6 291.7 58.3V54.8C291.7 51.6 292.2 49.5 293.2 48.4C294.2 47.3 296.7 45.9 300.6 44.4C304.8 42.7 307.1 41.6 307.4 41.1C307.7 40.5 307.8 39.4 307.8 37.6C307.8 35.4 307.6 34 307.3 33.3C307 32.6 306.4 32.3 305.7 32.3C304.8 32.3 304.3 32.6 304.1 33.1C303.9 33.7 303.8 35.1 303.8 37.5V41.9H303.7ZM307.7 47.7C305.6 49.2 304.5 50.5 304.1 51.5C303.7 52.5 303.6 54 303.6 55.9C303.6 58.1 303.7 59.5 304 60.1C304.3 60.7 304.9 61.1 305.7 61.1C306.5 61.1 307 60.9 307.3 60.4C307.5 59.9 307.7 58.6 307.7 56.5V47.7V47.7Z" fill="#EEEEEE"/>
<path d="M341.3 25.6L341.1 29.5C342 28 343.2 26.8 344.5 26C345.8 25.2 347.4 24.8 349.1 24.8C351.3 24.8 353.1 25.3 354.5 26.4C355.9 27.4 356.8 28.7 357.2 30.3C357.6 31.9 357.8 34.5 357.8 38.2V67.7H345V38.5C345 35.6 344.9 33.8 344.7 33.2C344.5 32.6 344 32.2 343.1 32.2C342.2 32.2 341.6 32.6 341.4 33.3C341.2 34 341.1 36 341.1 39.2V67.7H328.3V25.6H341.3V25.6Z" fill="#EEEEEE"/>
<path d="M393.1 25.6L387.9 42.4L394.7 67.7H382.4L378.4 49.3V67.7H365.6V16.3H378.4V37.9L382.4 25.6H393.1V25.6Z" fill="#EEEEEE"/>
</svg>
